<?xml version="1.0" standalone="no"?><!DOCTYPE svg PUBLIC "-//W3C//DTD SVG 1.1//EN" "http://www.w3.org/Graphics/SVG/1.1/DTD/svg11.dtd"><svg t="1733408426886" class="icon" viewBox="0 0 1024 1024" version="1.1" xmlns="http://www.w3.org/2000/svg" p-id="23592" xmlns:xlink="http://www.w3.org/1999/xlink" width="200" height="200"><path d="M881 290.9h-45.2C818.3 178.7 721.5 92.7 604.3 92.7s-214 86-231.5 198.3H145c-44 0-80 36-80 80v480c0 44 36 80 80 80h736c44 0 80-36 80-80V371c0-44.1-36-80.1-80-80.1z m16 440.6l-122.5-56.1L897 434.1v297.4z m-1.1-365.9L745.4 662l-75.2-34.5c66.1-61.6 150.9-180.6 166.2-272.6H881c6.8 0 12.6 4.6 14.9 10.7zM260.2 866.9l150.7-323.1 82 37.6c43.5 51.3 87.5 87.2 111.4 87.2 9.5 0 23.1-6.7 38.8-18.3l87.8 40.3-89.5 176.3H260.2z m344.1-653.4c64.9 0 117.5 52.6 117.5 117.5s-52.6 117.5-117.5 117.5S486.8 395.9 486.8 331s52.6-117.5 117.5-117.5zM145 354.9h227.1c8.8 53.8 40.8 116.8 79.2 172.3L129 379.4v-8.5c0-8.6 7.3-16 16-16z m-16 496V414.6l252.8 115.9-156.9 336.4H145c-8.7 0-16-7.3-16-16z m752 16H677.3l82.7-163 137 62.8v84.2c0 8.7-7.3 16-16 16z" fill="#13227a" p-id="23593"></path></svg>