<?xml version="1.0" standalone="no"?><!DOCTYPE svg PUBLIC "-//W3C//DTD SVG 1.1//EN" "http://www.w3.org/Graphics/SVG/1.1/DTD/svg11.dtd"><svg t="1733408925287" class="icon" viewBox="0 0 1024 1024" version="1.1" xmlns="http://www.w3.org/2000/svg" p-id="26108" xmlns:xlink="http://www.w3.org/1999/xlink" width="200" height="200"><path d="M632.66176 625.536v-101.290667A243.498667 243.498667 0 0 1 389.120427 280.746667H288.128427a344.149333 344.149333 0 0 0 344.533333 344.789333z" fill="#FFFFFF" fill-opacity=".8" p-id="26109"></path><path d="M632.66176 471.04V369.493333a88.192 88.192 0 0 1-88.490667-88.490666h-101.418666a189.397333 189.397333 0 0 0 55.594666 134.357333 188.288 188.288 0 0 0 134.314667 55.722667z" fill="#FFFFFF" fill-opacity=".8" p-id="26110"></path><path d="M576.640427 309.632a50.730667 50.730667 0 0 1 10.965333-55.253333l115.797333-115.242667a50.730667 50.730667 0 1 1 71.68 71.68l-115.626666 115.242667a50.730667 50.730667 0 0 1-82.773334-16.426667z m213.333333-52.053333l83.498667 83.413333a53.333333 53.333333 0 0 1-75.477334 75.477333l-83.456-83.456 75.477334-75.477333zM570.32576 37.674667l83.456 83.498666-75.477333 75.434667-83.456-83.456a53.333333 53.333333 0 0 1 75.52-75.477333zM14.80576 971.52A50.602667 50.602667 0 0 1 0.000427 935.594667v-313.301334c0-22.186667 14.506667-41.813333 35.712-48.426666l245.504-76.288a51.072 51.072 0 1 1 29.866666 97.706666L101.504427 660.053333v207.616l226.56-67.626666c8.832-2.517333 18.218667-2.517333 27.050666 0l326.272 83.328 240.384-55.04V611.84l-179.498666 47.061333a50.730667 50.730667 0 0 1-25.301334-98.176l243.498667-63.445333a50.730667 50.730667 0 0 1 63.573333 49.066667v322.389333c0 23.637333-16.341333 44.117333-39.381333 49.365333l-292.693333 66.816a48.981333 48.981333 0 0 1-23.850667 0L343.467093 901.888 65.195093 984.32c-4.693333 1.365333-9.557333 2.048-14.506666 2.048-13.44 0-26.368-5.290667-35.84-14.848z" fill="#FFFFFF" fill-opacity=".8" p-id="26111"></path></svg>