<?xml version="1.0" standalone="no"?><!DOCTYPE svg PUBLIC "-//W3C//DTD SVG 1.1//EN" "http://www.w3.org/Graphics/SVG/1.1/DTD/svg11.dtd"><svg t="1733407593497" class="icon" viewBox="0 0 1024 1024" version="1.1" xmlns="http://www.w3.org/2000/svg" p-id="20060" xmlns:xlink="http://www.w3.org/1999/xlink" width="200" height="200"><path d="M512 1024C230.4 1024 0 793.6 0 512S230.4 0 512 0s512 230.4 512 512-230.4 512-512 512z" fill="#5BC1ED" p-id="20061"></path><path d="M1024 512c0-34.008-3.432-67.248-9.84-99.456-105.88-26.112-589.632-145.232-616.6-148.408-30.288-3.568-46.712 1.016-69.816 11.712-23.096 10.704-86.76 60.96-86.76 128.872-16.424 20.88-37.48 32.088-45.176 74.872-7.704 42.784 20.536 73.856 20.536 73.856l25.672 24.448L494.792 1023.56c5.72 0.192 11.432 0.44 17.208 0.44 281.6 0 512-230.4 512-512z" fill="#2399BC" p-id="20062"></path><path d="M689.112 588.688c128.008-100.792 13.76-209.032-45.472-187.288-0.576-3.528-1.304-7.056-2.392-10.568-12.712-41.056-56.296-64.04-97.36-51.328a77.516 77.516 0 0 0-21.592 10.584c-23.424-47.864-72.568-80.808-129.432-80.536-78.936 0.368-142.64 64.44-142.728 143.272-34.752 23.384-51.688 67.536-38.664 109.608 8.224 26.584 26.84 47.04 49.96 58.456 0 0 23.848 12.488 51.688 9.76" fill="#DFF1FA" p-id="20063"></path><path d="M298.568 597.848c-25.536 0.008-45.776-10.424-46.728-10.92-25.8-12.752-44.776-34.96-53.304-62.48-13.136-42.44 2.64-89.28 38.4-115.216 1.992-80.736 68.312-146.128 149.472-146.504h0.744c55.2 0 104.816 29.504 131.344 77.624a84.3 84.3 0 0 1 16.952-7.368c21.584-6.712 44.496-4.56 64.512 5.976 19.992 10.552 34.688 28.248 41.384 49.84 0.696 2.24 1.288 4.56 1.808 7.12a104.56 104.56 0 0 1 23.912 10.264 6.81 6.81 0 0 1 2.448 9.32c-1.896 3.24-6.072 4.368-9.328 2.448a91.712 91.712 0 0 0-24.568-9.928 6.794 6.794 0 0 1-5.12-5.536c-0.616-3.76-1.304-6.832-2.184-9.648-5.608-18.12-17.936-32.968-34.72-41.824-16.768-8.84-35.992-10.616-54.112-5.016a70.768 70.768 0 0 0-19.704 9.672 6.9 6.9 0 0 1-5.608 1.016 6.792 6.792 0 0 1-4.424-3.608c-23.192-47.376-70.12-76.72-122.6-76.72-0.232 0-0.456 0.008-0.68 0.008-74.872 0.344-135.856 61.56-135.936 136.448a6.848 6.848 0 0 1-3.016 5.648c-32.888 22.136-47.68 64.064-35.952 101.944 7.4 23.912 23.904 43.224 46.464 54.368 0.36 0.184 22.56 11.552 48.016 9.088 3.656-0.496 7.072 2.368 7.448 6.112a6.804 6.804 0 0 1-6.12 7.448 89.18 89.18 0 0 1-8.8 0.424" fill="#474341" p-id="20064"></path><path d="M285.048 404.168c2.592-38.384 30.336-64.624 63.272-80.416 5.584-2.672 0.704-10.976-4.856-8.304-36.256 17.384-65.216 46.976-68.04 88.72-0.416 6.184 9.208 6.152 9.624 0M371.944 318.2c9.32-5.744 20.296-6.2 29.952-0.952 5.44 2.96 10.304-5.344 4.856-8.304-12.608-6.856-27.408-6.608-39.656 0.944-5.272 3.248-0.44 11.576 4.848 8.312" fill="#0F95BC" p-id="20065"></path><path d="M652.648 600.264c-0.496 0-0.984-0.056-1.456-0.16l-64.8 0.16h-0.016a6.82 6.82 0 1 1-0.024-13.64l55.656-0.128c0.232-0.016 0.472-0.04 0.704-0.04h14.352a6.832 6.832 0 0 1 6.824 6.68 6.914 6.914 0 0 1-0.832 3.408c-0.008 0-0.008 0.008-0.008 0.016-0.008 0-0.008 0.008-0.008 0.008-0.008 0.008-0.008 0.016-0.008 0.016h-0.008c0 0.008 0 0.016-0.008 0.016 0 0.008 0 0.016-0.008 0.016 0 0.008 0 0.008-0.008 0.016 0 0.008 0 0.008-0.008 0.016 0 0 0 0.008-0.008 0.016 0 0.008-0.008 0.008-0.008 0.016l-0.008 0.008v0.008l-0.008 0.024v0.008c-0.008 0-0.008 0.008-0.008 0.008s-0.016 0.008-0.008 0.016c-0.008 0.008-0.008 0.008-0.008 0.016h-0.008c-0.008 0.016 0 0.016-0.008 0.016 0 0.008 0 0.008-0.008 0.016 0 0 0 0.016-0.008 0.016l-0.008 0.008v0.008l-0.008 0.008s-0.008-0.008-0.008 0.016c-0.008 0.008-0.008 0.008-0.008 0.016 0 0 0-0.016-0.008 0.016h-0.008c0 0.008-0.016 0.032-0.008 0.016 0 0 0 0.008-0.008 0.008v0.008l-0.008 0.008s0-0.016-0.008 0.016c-0.008 0.008-0.008 0.008-0.008 0.016h-0.008v0.008l-0.008 0.008s0 0.008-0.008 0.008v0.008l-0.008 0.008v0.008l-0.008 0.008c0 0.008 0-0.008-0.008 0.016h-0.048v0.008l-0.008 0.008s0 0.008-0.008 0.008v0.008l-0.008 0.008s0-0.008-0.008 0.016l-0.008 0.008-0.008 0.008v0.008c-0.008 0-0.008 0.008-0.008 0.008s0 0.008-0.008 0.008v0.008c-0.008 0-0.008 0-0.008 0.008l-0.008 0.008c0 0.008-0.008 0.008-0.008 0.008v0.008c-0.008 0-0.008 0.008-0.008 0.008s0 0.008-0.008 0.008v0.008c-0.008 0-0.008 0-0.008 0.008l-0.008 0.008-0.008 0.008c0 0.008 0 0.008-0.008 0.008v0.008l-0.008 0.008s0 0.008-0.008 0.008v0.008s-0.008 0-0.008 0.008l-0.008 0.008c0 0.008 0 0.008-0.008 0.008v0.008c-0.008 0-0.008 0.008-0.008 0.008l-0.008 0.008-0.008 0.008c0 0.016-0.008 0.024-0.008 0.016-0.008 0-0.008 0.008-0.008 0.008s0 0.008-0.008 0.008v0.008s-0.008 0-0.008 0.008c0 0-0.016 0-0.008 0.008l-0.008 0.008s0 0.008-0.008 0.008v0.008s-0.008 0-0.008 0.008c0 0-0.008 0-0.008 0.008l-0.008 0.008s0 0.008-0.008 0.008c0 0-0.008-0.008-0.008 0.016-0.008 0 0 0-0.008 0.008l-0.008 0.008-0.008 0.008s-0.008-0.008-0.008 0.016c0 0 0.016 0.008-0.016 0.008v0.008l-0.008 0.008s0-0.008-0.008 0.016h-0.008c0 0.008-0.016 0.016-0.008 0.016l-0.008 0.008-0.008 0.008s0 0.016-0.008 0.008c0 0.008-0.008 0.008-0.008 0.008v0.008c-0.008 0-0.008 0-0.008 0.008 0 0-0.008 0-0.008 0.008 0 0-0.016 0-0.008 0.008-0.008 0-0.008 0.008-0.008 0.008s0 0.008-0.008 0.008c0 0 0 0.008-0.008 0.008 0 0.008-0.008 0.008-0.008 0.008s0 0.008-0.008 0.008v0.008s-0.008 0-0.008 0.008l-0.008 0.008c-0.008 0-0.008 0.008-0.008 0.008l-0.008 0.008-0.008 0.008-0.008 0.008s0 0.008-0.008 0.008v0.008c-0.008 0-0.008 0-0.008 0.008h-0.104c0 0.008 0 0.008-0.008 0.008v0.008c-0.008 0-0.008 0-0.008 0.008h-0.008c0 0.008-0.008 0.016-0.008 0.016-0.008 0-0.008 0.008-0.008 0.008s-0.008 0-0.008 0.008l-0.008 0.008-0.008 0.008-0.008 0.008-0.008 0.008c0 0.008-0.008 0.008-0.008 0.008s0 0.008-0.008 0.008l-0.008 0.008c0 0.008-0.008 0.008-0.008 0.008s0 0.008-0.008 0.008l-0.008 0.008c0 0.008-0.008 0.008-0.008 0.008s0 0.008-0.008 0.008l-0.008 0.008c0 0.008-0.008 0.008-0.008 0.008 0 0.008 0 0.008-0.008 0.008 0 0 0 0.008-0.008 0.008 0 0.008-0.008 0.008-0.008 0.008 0 0.008-0.008 0.008-0.008 0.008s0 0.008-0.008 0.008l-0.008 0.008c0 0.008-0.008 0.008-0.008 0.008s0 0.008-0.008 0.008l-0.008 0.008-0.008 0.008s0 0.008-0.008 0.008l-0.008 0.008-0.008 0.008-0.008 0.008c-0.008 0.008-0.008 0.008-0.016 0.008v0.008s-0.008 0-0.008 0.008c-0.008 0-0.008 0.008-0.016 0.008v0.008s-0.008 0-0.008 0.008h-0.008s0 0.008-0.008 0.008c0 0-0.008-0.008-0.008 0.016h-0.008l-0.008 0.008-0.016 0.016-0.008 0.008-0.016 0.016s-0.008 0.008-0.016 0.008l-0.008 0.008-0.016 0.016-0.008 0.008c-1.136 0.984-2.6 1.608-4.216 1.672l-4.424 0.168c-0.16 0.264-0.256 0.264-0.344 0.264M565.504 600.264h-0.008l-164.752-0.168a6.82 6.82 0 0 1 0.016-13.64h0.008l164.752 0.168a6.824 6.824 0 0 1 6.808 6.832 6.832 6.832 0 0 1-6.824 6.808M379.104 600.264h-38.792a6.826 6.826 0 0 1 0-13.648h38.792a6.826 6.826 0 0 1 0 13.648" fill="#474341" p-id="20066"></path><path d="M657.08 600.096a6.832 6.832 0 0 1-6.824-6.76 6.824 6.824 0 0 1 6.76-6.88c0.192 0 18.792-0.208 29.776-4.184 25.4-9.176 37.712-32.632 43.568-50.68 7.264-22.36 1.464-47.552-14.096-61.256-8.608-7.592-20.944-12.624-35.616-14.584-14.288-1.88-25.912-0.16-34.536 5.128-8.392 5.16-15.136 16.424-11.896 26.336a6.83 6.83 0 0 1-4.368 8.6c-3.608 1.16-7.44-0.8-8.6-4.368-4.848-14.84 2.768-32.976 17.72-42.176 11.352-6.976 25.952-9.392 43.472-7.024 17.368 2.304 32.176 8.488 42.848 17.864 19.824 17.464 27.072 47.888 18.04 75.696-6.792 20.944-21.304 48.24-51.888 59.296-13.2 4.776-33.448 4.984-34.304 5h-0.056v-0.008zM738.68 768.912a6.826 6.826 0 0 1 0-13.648c28.96 0 51.664-12.936 63.96-36.44 12.912-24.704 11.128-56.376-4.464-78.824-16.368-23.576-45.176-34.064-81.096-29.552a6.776 6.776 0 0 1-7.624-5.912 6.826 6.826 0 0 1 5.912-7.624c55.608-7.024 82.752 19.112 94 35.296 18.408 26.512 20.56 63.848 5.36 92.928-14.552 27.824-42.272 43.776-76.048 43.776" fill="#474341" p-id="20067"></path><path d="M760.648 592.68c-9.664 0-20.824-1.392-33.68-4.784a6.822 6.822 0 0 1-4.856-8.336 6.798 6.798 0 0 1 8.336-4.856c31.72 8.376 56.808 4.488 70.616-10.976 10.264-11.504 13.056-28.816 7.096-44.112-5.872-15.104-18.584-24.696-34.864-26.32a6.822 6.822 0 0 1-6.112-7.464c0.368-3.736 3.768-6.512 7.464-6.112 21.264 2.128 38.544 15.184 46.224 34.936 7.784 20.032 4.008 42.848-9.64 58.136-7.48 8.392-22.816 19.888-50.584 19.888M668.36 747.48c-14.176 0-26.848-4.336-36.056-12.4-12.36-10.84-16.968-28.688-10.984-42.432 4.976-11.448 16.72-19.256 29.216-19.432 12.312 0.016 24.44 7.336 29.728 18.656a6.822 6.822 0 0 1-3.288 9.064 6.81 6.81 0 0 1-9.064-3.288c-2.984-6.384-9.952-10.8-16.992-10.8-0.064 0-0.128 0.008-0.208 0.008-7.112 0.096-14.064 4.72-16.904 11.224-3.624 8.328-0.408 19.816 7.472 26.736 7.352 6.448 18.544 9.68 30.816 8.896 18.024-1.16 35.32-10.424 46.272-24.808 10.944-14.368 15.296-33.488 11.624-51.192-1.24-6.016-4-14.352-10.088-19.928-11.744-10.808-31.288-8.552-50.624-4.536-3.704 0.832-7.304-1.592-8.064-5.28a6.814 6.814 0 0 1 5.288-8.064c22.912-4.784 46.36-7.112 62.632 7.824 6.936 6.36 11.848 15.768 14.224 27.208 4.456 21.504-0.824 44.768-14.144 62.224-13.304 17.464-34.328 28.736-56.24 30.136-1.544 0.136-3.096 0.184-4.616 0.184M410.896 637.624a6.83 6.83 0 0 1-6.824-6.72 6.824 6.824 0 0 1 6.72-6.92l72.456-1.104c4.056 0.08 6.872 2.944 6.92 6.72a6.82 6.82 0 0 1-6.72 6.92l-72.456 1.104h-0.096zM502.128 636.224a6.82 6.82 0 1 1-0.104-13.64l137.8-2.112c3.456-0.328 6.856 2.944 6.92 6.72a6.824 6.824 0 0 1-6.72 6.92l-137.8 2.112h-0.096zM573.424 558.216h-106.6a6.826 6.826 0 0 1 0-13.648h106.6a6.826 6.826 0 0 1 0 13.648M634.352 558.216H596.28a6.826 6.826 0 0 1 0-13.648h38.072a6.826 6.826 0 0 1 0 13.648" fill="#474341" p-id="20068"></path></svg>